<svg width="244" height="244" viewBox="0 0 244 244" fill="none" xmlns="http://www.w3.org/2000/svg">
<path d="M230.327 80C237.878 80 244 86.1218 244 93.6729V150.466C244 158.017 237.878 164.138 230.327 164.138H13.6729C6.12189 164.138 0.000163848 158.017 0 150.466V93.6729C0 86.1218 6.12179 80 13.6729 80H230.327ZM93.29 113.722C90.7996 113.722 88.578 114.294 86.626 115.438C84.7077 116.549 83.1926 118.097 82.082 120.083C80.9716 122.069 80.417 124.357 80.417 126.948C80.417 129.54 80.9554 131.828 82.0322 133.813C83.1428 135.799 84.6407 137.365 86.5254 138.509C88.4437 139.619 90.6312 140.175 93.0879 140.175C95.0062 140.175 96.7057 139.906 98.1865 139.367C99.7009 138.829 100.996 138.054 102.073 137.045C103.184 136.035 104.093 134.857 104.8 133.511L99.8018 131.391C99.2296 132.501 98.4393 133.41 97.4297 134.117C96.4201 134.79 95.1408 135.127 93.5928 135.127C92.2466 135.127 91.0178 134.824 89.9072 134.218C88.7967 133.612 87.9045 132.754 87.2314 131.644C86.6629 130.677 86.3364 129.566 86.248 128.312H105.305C105.305 125.283 104.766 122.674 103.689 120.486C102.646 118.299 101.216 116.633 99.3984 115.488C97.5812 114.31 95.5448 113.722 93.29 113.722ZM111.503 106.452V114.327H107.312V119.174H111.503V132.451C111.503 134.941 112.193 136.86 113.572 138.206C114.986 139.519 117.022 140.175 119.681 140.175C120.556 140.175 121.432 140.006 122.307 139.67C123.182 139.367 124.057 138.912 124.932 138.307L122.861 134.016C122.357 134.386 121.902 134.639 121.498 134.773C121.094 134.908 120.724 134.975 120.388 134.975C119.311 134.975 118.486 134.672 117.914 134.066C117.376 133.461 117.106 132.569 117.106 131.391V119.174H123.922V114.327H117.106V106.452H111.503ZM138.852 113.722C136.933 113.722 135.284 114.008 133.904 114.58C132.558 115.152 131.43 115.926 130.521 116.902C129.647 117.845 128.94 118.871 128.401 119.981L133.349 121.799C133.988 120.722 134.762 119.932 135.671 119.427C136.58 118.922 137.64 118.669 138.852 118.669C140.164 118.669 141.207 118.989 141.981 119.628C142.789 120.234 143.362 121.126 143.698 122.304C143.895 122.913 144.038 123.603 144.13 124.374H137.741C134.578 124.374 132.104 125.064 130.32 126.443C128.57 127.823 127.695 129.826 127.695 132.451C127.695 134.908 128.52 136.809 130.169 138.155C131.852 139.501 134.207 140.175 137.236 140.175C140.265 140.175 142.47 139.199 143.85 137.247C144.025 136.995 144.187 136.731 144.34 136.456L144.506 139.569H149.705L149.856 125.736C149.856 123.212 149.453 121.058 148.646 119.274C147.871 117.491 146.66 116.128 145.011 115.186C143.362 114.21 141.308 113.722 138.852 113.722ZM172.191 103.625C168.725 103.625 165.662 104.416 163.003 105.998C160.344 107.546 158.24 109.7 156.692 112.46C155.178 115.186 154.421 118.333 154.421 121.9C154.421 125.468 155.178 128.631 156.692 131.391C158.241 134.15 160.361 136.304 163.054 137.853C165.746 139.401 168.843 140.175 172.343 140.175C175.809 140.175 178.855 139.401 181.479 137.853C184.138 136.304 186.209 134.15 187.689 131.391C189.204 128.631 189.961 125.468 189.961 121.9C189.961 118.333 189.204 115.186 187.689 112.46C186.209 109.7 184.122 107.546 181.43 105.998C178.771 104.416 175.691 103.625 172.191 103.625ZM207.842 103.625C203.837 103.625 200.757 104.55 198.604 106.401C196.45 108.219 195.373 110.777 195.373 114.075C195.373 115.825 195.743 117.339 196.483 118.618C197.257 119.897 198.301 120.957 199.613 121.799C200.959 122.64 202.457 123.28 204.106 123.718L208.448 124.828C210.265 125.299 211.712 125.973 212.789 126.848C213.866 127.689 214.405 128.783 214.405 130.129C214.405 131.61 213.765 132.804 212.486 133.713C211.207 134.621 209.475 135.076 207.287 135.076C205.402 135.043 203.82 134.555 202.541 133.612C201.262 132.67 200.404 131.576 199.967 130.331L194.212 132.098C194.515 133.141 195.036 134.151 195.776 135.127C196.55 136.069 197.51 136.927 198.654 137.701C199.832 138.475 201.179 139.081 202.693 139.519C204.241 139.956 205.941 140.175 207.792 140.175C210.518 140.175 212.823 139.737 214.708 138.862C216.626 137.987 218.074 136.776 219.05 135.228C220.026 133.679 220.514 131.895 220.514 129.876C220.514 127.588 219.639 125.501 217.889 123.616C216.139 121.732 213.681 120.402 210.518 119.628L206.176 118.568C204.695 118.198 203.518 117.66 202.643 116.953C201.801 116.213 201.381 115.186 201.381 113.873C201.381 112.258 201.919 110.996 202.996 110.087C204.107 109.178 205.621 108.724 207.539 108.724C209.39 108.724 210.938 109.161 212.184 110.036C213.429 110.911 214.304 112.022 214.809 113.368L220.463 111.551C219.924 110.036 219.1 108.691 217.989 107.513C216.879 106.301 215.465 105.359 213.749 104.686C212.066 103.979 210.097 103.625 207.842 103.625ZM21.9229 104.231V109.582H32.7764V139.569H38.6318V109.582H49.4863V104.231H21.9229ZM53.3359 104.231V139.569H58.9902V126.393L58.9961 125.951C59.0553 123.776 59.5584 122.09 60.5049 120.891C61.5482 119.612 63.0289 118.989 64.9473 119.022C66.0242 119.022 66.9667 119.241 67.7744 119.679C68.6157 120.116 69.272 120.89 69.7432 122.001C70.2143 123.078 70.4502 124.626 70.4502 126.646V139.569H76.1035V125.333C76.1035 122.607 75.7165 120.402 74.9424 118.72C74.202 117.003 73.1083 115.741 71.6611 114.934C70.214 114.126 68.4973 113.722 66.5117 113.722C64.5263 113.722 62.8103 114.227 61.3633 115.236C60.4428 115.857 59.652 116.669 58.9902 117.671V104.231H53.3359ZM144.253 129.119L144.24 129.556C144.181 130.56 143.916 131.475 143.445 132.3C142.94 133.242 142.217 133.999 141.274 134.571C140.332 135.143 139.221 135.43 137.942 135.43C136.529 135.43 135.419 135.16 134.611 134.622C133.837 134.05 133.45 133.276 133.45 132.3C133.45 131.156 133.904 130.281 134.812 129.675C135.721 129.035 137.304 128.715 139.559 128.715H144.253V129.119ZM172.191 109.027C174.513 109.027 176.55 109.582 178.3 110.692C180.083 111.769 181.48 113.284 182.489 115.236C183.499 117.188 184.004 119.41 184.004 121.9C184.004 124.424 183.499 126.662 182.489 128.614C181.513 130.532 180.15 132.047 178.4 133.157C176.65 134.268 174.631 134.823 172.343 134.823C170.021 134.823 167.95 134.268 166.133 133.157C164.349 132.047 162.936 130.532 161.893 128.614C160.883 126.662 160.378 124.424 160.378 121.9C160.378 119.376 160.883 117.155 161.893 115.236C162.936 113.284 164.333 111.769 166.083 110.692C167.867 109.582 169.903 109.027 172.191 109.027ZM93.1387 118.568C94.1481 118.568 95.1072 118.803 96.0156 119.274C96.9579 119.712 97.7321 120.385 98.3379 121.294C98.8368 122.015 99.1297 122.907 99.2178 123.97H86.6074C86.7052 122.907 87.0306 122.015 87.585 121.294C88.2581 120.385 89.0998 119.712 90.1094 119.274C91.1189 118.803 92.1291 118.568 93.1387 118.568Z" fill="black"/>
</svg>
